<mxfile host="app.diagrams.net" modified="2024-04-17T02:02:05.390Z" agent="Mozilla/5.0 (Windows NT 10.0; Win64; x64) AppleWebKit/537.36 (KHTML, like Gecko) Chrome/123.0.0.0 Safari/537.36" version="24.2.5" etag="cYiJ85P6pJ8At0AUrcaI" type="github">
  <diagram name="第 1 页" id="O4O8XaVHQCxy0dBFH34U">
    <mxGraphModel>
      <root>
        <mxCell id="0" />
        <mxCell id="1" parent="0" />
      </root>
    </mxGraphModel>
  </diagram>
</mxfile>
